<?xml version="1.0" encoding="UTF-8" standalone="no"?>
<svg
   viewBox="0 0 100 110"
   version="1.1"
   id="svg142"
   sodipodi:docname="terminal.svg"
   width="100"
   height="110"
   inkscape:version="1.2.2 (b0a8486541, 2022-12-01)"
   xmlns:inkscape="http://www.inkscape.org/namespaces/inkscape"
   xmlns:sodipodi="http://sodipodi.sourceforge.net/DTD/sodipodi-0.dtd"
   xmlns="http://www.w3.org/2000/svg"
   xmlns:svg="http://www.w3.org/2000/svg">
  <defs
     id="defs146" />
  <sodipodi:namedview
     id="namedview144"
     pagecolor="#ffffff"
     bordercolor="#666666"
     borderopacity="1.0"
     inkscape:showpageshadow="2"
     inkscape:pageopacity="0.0"
     inkscape:pagecheckerboard="0"
     inkscape:deskcolor="#d1d1d1"
     showgrid="false"
     inkscape:zoom="1.4921875"
     inkscape:cx="139.39267"
     inkscape:cy="256"
     inkscape:window-width="1920"
     inkscape:window-height="1009"
     inkscape:window-x="-8"
     inkscape:window-y="-8"
     inkscape:window-maximized="1"
     inkscape:current-layer="svg142" />
  <!--! Font Awesome Free 6.4.2 by @fontawesome - https://fontawesome.com License - https://fontawesome.com/license/free (Icons: CC BY 4.0, Fonts: SIL OFL 1.1, Code: MIT License) Copyright 2023 Fonticons, Inc.-->
  <path
     d="m 3.8177895,26.912331 c -2.0719731,-2.071973 -2.0719731,-5.420282 0,-7.492255 2.0719732,-2.071973 5.4368578,-2.071973 7.5088305,0 l 31.825507,31.825507 c 2.071973,2.071974 2.071973,5.436858 0,7.508831 L 11.32662,90.579926 c -2.0719727,2.07197 -5.4368573,2.07197 -7.5088305,0 -2.0719731,-2.07198 -2.0719731,-5.436862 0,-7.508835 L 31.880593,54.991711 Z M 44.693675,81.512967 h 47.738261 c 2.933914,0 5.304254,2.370338 5.304254,5.304249 0,2.93392 -2.37034,5.30425 -5.304254,5.30425 H 44.693675 c -2.933914,0 -5.304252,-2.37033 -5.304252,-5.30425 0,-2.933911 2.370338,-5.304249 5.304252,-5.304249 z"
     id="path140"
     style="stroke-width:0.165758;fill:#07085d;fill-opacity:1" />
</svg>
