<?xml version="1.0" encoding="UTF-8" standalone="no"?>
<svg
   viewBox="0 0 576 512"
   version="1.1"
   id="svg4"
   sodipodi:docname="news.svg"
   inkscape:version="1.2.2 (b0a8486541, 2022-12-01)"
   width="576"
   height="512"
   xmlns:inkscape="http://www.inkscape.org/namespaces/inkscape"
   xmlns:sodipodi="http://sodipodi.sourceforge.net/DTD/sodipodi-0.dtd"
   xmlns="http://www.w3.org/2000/svg"
   xmlns:svg="http://www.w3.org/2000/svg">
  <defs
     id="defs8" />
  <sodipodi:namedview
     id="namedview6"
     pagecolor="#ffffff"
     bordercolor="#666666"
     borderopacity="1.0"
     inkscape:showpageshadow="2"
     inkscape:pageopacity="0.0"
     inkscape:pagecheckerboard="0"
     inkscape:deskcolor="#d1d1d1"
     showgrid="false"
     inkscape:zoom="0.4609375"
     inkscape:cx="-103.05085"
     inkscape:cy="256"
     inkscape:window-width="1920"
     inkscape:window-height="1009"
     inkscape:window-x="-8"
     inkscape:window-y="-8"
     inkscape:window-maximized="1"
     inkscape:current-layer="svg4" />
  <!--! Font Awesome Pro 6.4.2 by @fontawesome - https://fontawesome.com License - https://fontawesome.com/license (Commercial License) Copyright 2023 Fonticons, Inc. -->
  <path
     d="m 107.66102,75.661015 c 0,-39.787296 32.34831,-72.1355965 72.13561,-72.1355965 h 324.61016 c 39.78728,0 72.13558,32.3483005 72.13558,72.1355965 V 436.33897 c 0,39.78729 -32.3483,72.13561 -72.13558,72.13561 H 89.627126 c -49.818645,0 -90.1694926,-40.35084 -90.1694926,-90.16949 V 111.72882 c 0,-19.950001 16.1177966,-36.067805 36.0677966,-36.067805 19.949995,0 36.067793,16.117804 36.067793,36.067805 v 306.57627 c 0,9.91864 8.115262,18.03388 18.033903,18.03388 9.918641,0 18.033894,-8.11524 18.033894,-18.03388 z m 72.13561,27.050845 v 90.1695 c 0,14.99067 12.06016,27.05084 27.05084,27.05084 h 126.23728 c 14.99068,0 27.05084,-12.06017 27.05084,-27.05084 v -90.1695 c 0,-14.990676 -12.06016,-27.050844 -27.05084,-27.050844 H 206.84747 c -14.99068,0 -27.05084,12.060168 -27.05084,27.050844 z M 414.2373,93.69492 c 0,9.91865 8.11523,18.0339 18.03388,18.0339 h 54.10172 c 9.91864,0 18.03389,-8.11525 18.03389,-18.0339 0,-9.918653 -8.11525,-18.033904 -18.03389,-18.033904 h -54.10172 c -9.91865,0 -18.03388,8.115251 -18.03388,18.033904 z m 0,108.20338 c 0,9.91864 8.11523,18.0339 18.03388,18.0339 h 54.10172 c 9.91864,0 18.03389,-8.11526 18.03389,-18.0339 0,-9.91865 -8.11525,-18.03388 -18.03389,-18.03388 h -54.10172 c -9.91865,0 -18.03388,8.11523 -18.03388,18.03388 z M 179.79663,310.1017 c 0,9.91865 8.11523,18.03389 18.03388,18.03389 H 486.3729 c 9.91864,0 18.03389,-8.11524 18.03389,-18.03389 0,-9.91865 -8.11525,-18.03391 -18.03389,-18.03391 H 197.83051 c -9.91865,0 -18.03388,8.11526 -18.03388,18.03391 z m 0,108.20339 c 0,9.91864 8.11523,18.03388 18.03388,18.03388 H 486.3729 c 9.91864,0 18.03389,-8.11524 18.03389,-18.03388 0,-9.91865 -8.11525,-18.0339 -18.03389,-18.0339 H 197.83051 c -9.91865,0 -18.03388,8.11525 -18.03388,18.0339 z"
     id="path2"
     style="fill:#ffffff;stroke-width:1.12712" />
</svg>
